<svg width="500" height="118" viewBox="0 0 500 118" fill="none" xmlns="http://www.w3.org/2000/svg">
<path d="M156.014 312C242.178 312 312.028 242.156 312.028 156C312.028 69.8436 242.178 0 156.014 0C69.8499 0 0 69.8436 0 156C0 242.156 69.8499 312 156.014 312Z" fill="#FF07AA"/>
<path d="M211.319 178.495L164.157 78.84L155.979 62.6636L148.202 78.84L78.3757 225.616H96.4332L105.128 206.283L113.957 187.085L137.138 134.532L155.979 95.2541L197.485 187.085L201.824 196.438L215.408 225.616H233.583L211.319 178.495Z" fill="white"/>
<path d="M211.319 178.495L164.157 78.84L155.979 62.6636L148.202 78.84L78.3757 225.616H96.4332L105.128 206.283L113.957 187.085L137.138 134.532L155.979 95.2541L197.485 187.085L201.824 196.438L215.408 225.616H233.583L211.319 178.495Z" stroke="white"/>
<path d="M433.357 65.595H451.105L518.728 224.64H496.711L480.536 185.553H401.006L384.606 224.64H363.263L433.357 65.595ZM441.894 89.8561H441.445L408.42 168.031H473.347L441.894 89.8561ZM535.825 119.509H553.348V134.784H553.798C558.59 129.093 564.132 124.675 570.423 121.53C576.863 118.385 583.902 116.813 591.541 116.813C599.778 116.813 607.267 118.236 614.007 121.081C620.896 123.777 626.737 127.596 631.53 132.538C636.323 137.48 640.067 143.32 642.763 150.06C645.459 156.799 646.807 164.137 646.807 172.074C646.807 180.012 645.459 187.35 642.763 194.089C640.067 200.828 636.323 206.669 631.53 211.611C626.887 216.553 621.346 220.447 614.905 223.292C608.465 225.988 601.575 227.336 594.237 227.336C584.801 227.336 576.488 225.314 569.299 221.27C562.26 217.077 557.093 211.985 553.798 205.995H553.348V275.858H535.825V119.509ZM553.348 172.074C553.348 177.615 554.172 182.782 555.82 187.574C557.617 192.217 560.163 196.335 563.458 199.93C566.753 203.374 570.647 206.145 575.14 208.241C579.783 210.188 584.951 211.162 590.642 211.162C596.333 211.162 601.426 210.188 605.919 208.241C610.562 206.145 614.531 203.374 617.826 199.93C621.121 196.335 623.592 192.217 625.24 187.574C627.037 182.782 627.936 177.615 627.936 172.074C627.936 166.533 627.037 161.441 625.24 156.799C623.592 152.006 621.121 147.888 617.826 144.444C614.531 140.849 610.562 138.079 605.919 136.132C601.426 134.035 596.333 132.987 590.642 132.987C584.951 132.987 579.783 134.035 575.14 136.132C570.647 138.079 566.753 140.849 563.458 144.444C560.163 147.888 557.617 152.006 555.82 156.799C554.172 161.441 553.348 166.533 553.348 172.074ZM673.166 119.509H690.689V134.784H691.139C695.932 129.093 701.473 124.675 707.764 121.53C714.204 118.385 721.243 116.813 728.882 116.813C737.119 116.813 744.608 118.236 751.348 121.081C758.237 123.777 764.079 127.596 768.871 132.538C773.664 137.48 777.408 143.32 780.104 150.06C782.8 156.799 784.148 164.137 784.148 172.074C784.148 180.012 782.8 187.35 780.104 194.089C777.408 200.828 773.664 206.669 768.871 211.611C764.228 216.553 758.687 220.447 752.246 223.292C745.806 225.988 738.917 227.336 731.578 227.336C722.142 227.336 713.829 225.314 706.64 221.27C699.601 217.077 694.434 211.985 691.139 205.995H690.689V275.858H673.166V119.509ZM690.689 172.074C690.689 177.615 691.513 182.782 693.161 187.574C694.958 192.217 697.504 196.335 700.799 199.93C704.094 203.374 707.988 206.145 712.482 208.241C717.124 210.188 722.292 211.162 727.983 211.162C733.674 211.162 738.767 210.188 743.26 208.241C747.903 206.145 751.872 203.374 755.167 199.93C758.462 196.335 760.933 192.217 762.581 187.574C764.378 182.782 765.277 177.615 765.277 172.074C765.277 166.533 764.378 161.441 762.581 156.799C760.933 152.006 758.462 147.888 755.167 144.444C751.872 140.849 747.903 138.079 743.26 136.132C738.767 134.035 733.674 132.987 727.983 132.987C722.292 132.987 717.124 134.035 712.482 136.132C707.988 138.079 704.094 140.849 700.799 144.444C697.504 147.888 694.958 152.006 693.161 156.799C691.513 161.441 690.689 166.533 690.689 172.074ZM814.551 65.595H842.633L896.552 190.27H897.001L951.369 65.595H978.778V224.64H959.906V91.2039H959.457L902.393 224.64H890.935L833.872 91.2039H833.422V224.64H814.551V65.595ZM1013.88 132.987C1019.27 127.446 1025.63 123.402 1032.97 120.856C1040.46 118.161 1048.02 116.813 1055.66 116.813C1071.24 116.813 1082.47 120.482 1089.36 127.82C1096.25 135.158 1099.7 146.316 1099.7 161.292V206.444C1099.7 209.439 1099.85 212.584 1100.15 215.879C1100.44 219.024 1100.82 221.944 1101.27 224.64H1084.42C1083.82 222.244 1083.45 219.623 1083.3 216.778C1083.3 213.782 1083.3 211.162 1083.3 208.915H1082.85C1079.4 214.307 1074.76 218.725 1068.92 222.169C1063.23 225.614 1056.34 227.336 1048.25 227.336C1042.86 227.336 1037.76 226.662 1032.97 225.314C1028.33 223.966 1024.21 222.019 1020.62 219.473C1017.17 216.778 1014.4 213.483 1012.3 209.589C1010.21 205.695 1009.16 201.203 1009.16 196.111C1009.16 187.425 1011.4 180.611 1015.9 175.669C1020.39 170.726 1025.93 167.057 1032.52 164.661C1039.26 162.265 1046.45 160.767 1054.09 160.168C1061.88 159.569 1068.99 159.27 1075.43 159.27H1082.17V156.125C1082.17 148.487 1079.85 142.721 1075.21 138.828C1070.71 134.934 1064.35 132.987 1056.11 132.987C1050.42 132.987 1044.8 133.96 1039.26 135.907C1033.87 137.704 1029.08 140.55 1024.88 144.444L1013.88 132.987ZM1064.65 174.096C1053.42 174.096 1044.5 175.669 1037.91 178.814C1031.32 181.958 1028.03 187.125 1028.03 194.314C1028.03 200.903 1030.2 205.621 1034.54 208.466C1039.04 211.162 1044.58 212.51 1051.17 212.51C1056.26 212.51 1060.68 211.686 1064.42 210.038C1068.32 208.241 1071.54 205.92 1074.08 203.075C1076.63 200.229 1078.58 196.934 1079.93 193.19C1081.27 189.297 1082.02 185.178 1082.17 180.835V174.096H1064.65ZM1130.82 119.509H1148.35V134.784H1148.8C1153.59 129.093 1159.13 124.675 1165.42 121.53C1171.86 118.385 1178.9 116.813 1186.54 116.813C1194.78 116.813 1202.27 118.236 1209.01 121.081C1215.9 123.777 1221.74 127.596 1226.53 132.538C1231.33 137.48 1235.07 143.32 1237.77 150.06C1240.46 156.799 1241.81 164.137 1241.81 172.074C1241.81 180.012 1240.46 187.35 1237.77 194.089C1235.07 200.828 1231.33 206.669 1226.53 211.611C1221.89 216.553 1216.34 220.447 1209.9 223.292C1203.46 225.988 1196.57 227.336 1189.24 227.336C1179.8 227.336 1171.49 225.314 1164.3 221.27C1157.26 217.077 1152.09 211.985 1148.8 205.995H1148.35V275.858H1130.82V119.509ZM1148.35 172.074C1148.35 177.615 1149.17 182.782 1150.82 187.574C1152.62 192.217 1155.16 196.335 1158.46 199.93C1161.75 203.374 1165.65 206.145 1170.14 208.241C1174.78 210.188 1179.95 211.162 1185.64 211.162C1191.33 211.162 1196.42 210.188 1200.92 208.241C1205.56 206.145 1209.53 203.374 1212.83 199.93C1216.12 196.335 1218.59 192.217 1220.24 187.574C1222.04 182.782 1222.93 177.615 1222.93 172.074C1222.93 166.533 1222.04 161.441 1220.24 156.799C1218.59 152.006 1216.12 147.888 1212.83 144.444C1209.53 140.849 1205.56 138.079 1200.92 136.132C1196.42 134.035 1191.33 132.987 1185.64 132.987C1179.95 132.987 1174.78 134.035 1170.14 136.132C1165.65 138.079 1161.75 140.849 1158.46 144.444C1155.16 147.888 1152.62 152.006 1150.82 156.799C1149.17 161.441 1148.35 166.533 1148.35 172.074Z" fill="black"/>
</svg>
