<svg width="1323" height="312" viewBox="0 0 1323 312" fill="none" xmlns="http://www.w3.org/2000/svg">
<path d="M156.014 312C242.178 312 312.028 242.156 312.028 156C312.028 69.8436 242.178 0 156.014 0C69.8499 0 0 69.8436 0 156C0 242.156 69.8499 312 156.014 312Z" fill="#FF07AA"/>
<path d="M211.319 178.495L164.157 78.84L155.979 62.6636L148.202 78.84L78.3757 225.616H96.4332L105.128 206.283L113.957 187.085L137.138 134.532L155.979 95.2541L197.485 187.085L201.824 196.438L215.408 225.616H233.583L211.319 178.495Z" fill="white"/>
<path d="M211.319 178.495L164.157 78.84L155.979 62.6636L148.202 78.84L78.3757 225.616H96.4332L105.128 206.283L113.957 187.085L137.138 134.532L155.979 95.2541L197.485 187.085L201.824 196.438L215.408 225.616H233.583L211.319 178.495Z" stroke="white"/>
<path d="M458.357 65.5948H476.105L543.728 224.64H521.711L505.536 185.553H426.006L409.606 224.64H388.263L458.357 65.5948ZM466.894 89.856H466.445L433.42 168.031H498.347L466.894 89.856ZM560.825 119.508H578.348V134.784H578.798C583.59 129.093 589.132 124.675 595.422 121.53C601.863 118.385 608.902 116.813 616.54 116.813C624.778 116.813 632.267 118.235 639.007 121.081C645.896 123.777 651.737 127.595 656.53 132.538C661.323 137.48 665.067 143.32 667.763 150.059C670.459 156.799 671.807 164.137 671.807 172.074C671.807 180.011 670.459 187.35 667.763 194.089C665.067 200.828 661.323 206.669 656.53 211.611C651.887 216.553 646.345 220.447 639.905 223.292C633.465 225.988 626.575 227.336 619.236 227.336C609.801 227.336 601.488 225.314 594.299 221.27C587.26 217.077 582.093 211.985 578.798 205.995H578.348V275.858H560.825V119.508ZM578.348 172.074C578.348 177.615 579.172 182.782 580.819 187.574C582.617 192.217 585.163 196.335 588.458 199.93C591.753 203.374 595.647 206.145 600.14 208.241C604.783 210.188 609.95 211.162 615.642 211.162C621.333 211.162 626.426 210.188 630.919 208.241C635.562 206.145 639.531 203.374 642.826 199.93C646.121 196.335 648.592 192.217 650.24 187.574C652.037 182.782 652.935 177.615 652.935 172.074C652.935 166.533 652.037 161.441 650.24 156.799C648.592 152.006 646.121 147.888 642.826 144.443C639.531 140.849 635.562 138.079 630.919 136.132C626.426 134.035 621.333 132.987 615.642 132.987C609.95 132.987 604.783 134.035 600.14 136.132C595.647 138.079 591.753 140.849 588.458 144.443C585.163 147.888 582.617 152.006 580.819 156.799C579.172 161.441 578.348 166.533 578.348 172.074ZM698.166 119.508H715.689V134.784H716.139C720.931 129.093 726.473 124.675 732.764 121.53C739.204 118.385 746.243 116.813 753.882 116.813C762.119 116.813 769.608 118.235 776.348 121.081C783.237 123.777 789.078 127.595 793.871 132.538C798.664 137.48 802.408 143.32 805.104 150.059C807.8 156.799 809.148 164.137 809.148 172.074C809.148 180.011 807.8 187.35 805.104 194.089C802.408 200.828 798.664 206.669 793.871 211.611C789.228 216.553 783.687 220.447 777.246 223.292C770.806 225.988 763.916 227.336 756.577 227.336C747.142 227.336 738.829 225.314 731.64 221.27C724.601 217.077 719.434 211.985 716.139 205.995H715.689V275.858H698.166V119.508ZM715.689 172.074C715.689 177.615 716.513 182.782 718.161 187.574C719.958 192.217 722.504 196.335 725.799 199.93C729.094 203.374 732.988 206.145 737.481 208.241C742.124 210.188 747.292 211.162 752.983 211.162C758.674 211.162 763.767 210.188 768.26 208.241C772.903 206.145 776.872 203.374 780.167 199.93C783.462 196.335 785.933 192.217 787.581 187.574C789.378 182.782 790.277 177.615 790.277 172.074C790.277 166.533 789.378 161.441 787.581 156.799C785.933 152.006 783.462 147.888 780.167 144.443C776.872 140.849 772.903 138.079 768.26 136.132C763.767 134.035 758.674 132.987 752.983 132.987C747.292 132.987 742.124 134.035 737.481 136.132C732.988 138.079 729.094 140.849 725.799 144.443C722.504 147.888 719.958 152.006 718.161 156.799C716.513 161.441 715.689 166.533 715.689 172.074ZM839.551 65.5948H867.633L921.552 190.27H922.001L976.369 65.5948H1003.78V224.64H984.906V91.2038H984.457L927.393 224.64H915.935L858.872 91.2038H858.422V224.64H839.551V65.5948ZM1038.88 132.987C1044.27 127.446 1050.63 123.402 1057.97 120.856C1065.46 118.161 1073.02 116.813 1080.66 116.813C1096.24 116.813 1107.47 120.482 1114.36 127.82C1121.25 135.158 1124.7 146.315 1124.7 161.291V206.444C1124.7 209.439 1124.85 212.584 1125.15 215.879C1125.44 219.024 1125.82 221.944 1126.27 224.64H1109.42C1108.82 222.244 1108.45 219.623 1108.3 216.778C1108.3 213.782 1108.3 211.162 1108.3 208.915H1107.85C1104.4 214.307 1099.76 218.724 1093.92 222.169C1088.23 225.613 1081.34 227.336 1073.25 227.336C1067.86 227.336 1062.76 226.662 1057.97 225.314C1053.33 223.966 1049.21 222.019 1045.62 219.473C1042.17 216.778 1039.4 213.483 1037.3 209.589C1035.21 205.695 1034.16 201.203 1034.16 196.111C1034.16 187.425 1036.4 180.611 1040.9 175.668C1045.39 170.726 1050.93 167.057 1057.52 164.661C1064.26 162.265 1071.45 160.767 1079.09 160.168C1086.88 159.569 1093.99 159.27 1100.43 159.27H1107.17V156.125C1107.17 148.487 1104.85 142.721 1100.21 138.827C1095.71 134.934 1089.35 132.987 1081.11 132.987C1075.42 132.987 1069.8 133.96 1064.26 135.907C1058.87 137.704 1054.08 140.55 1049.88 144.443L1038.88 132.987ZM1089.65 174.096C1078.42 174.096 1069.5 175.668 1062.91 178.813C1056.32 181.958 1053.03 187.125 1053.03 194.314C1053.03 200.903 1055.2 205.62 1059.54 208.466C1064.04 211.162 1069.58 212.509 1076.17 212.509C1081.26 212.509 1085.68 211.686 1089.42 210.038C1093.32 208.241 1096.54 205.92 1099.08 203.075C1101.63 200.229 1103.58 196.934 1104.93 193.19C1106.27 189.297 1107.02 185.178 1107.17 180.835V174.096H1089.65ZM1155.82 119.508H1173.35V134.784H1173.8C1178.59 129.093 1184.13 124.675 1190.42 121.53C1196.86 118.385 1203.9 116.813 1211.54 116.813C1219.78 116.813 1227.27 118.235 1234.01 121.081C1240.9 123.777 1246.74 127.595 1251.53 132.538C1256.33 137.48 1260.07 143.32 1262.77 150.059C1265.46 156.799 1266.81 164.137 1266.81 172.074C1266.81 180.011 1265.46 187.35 1262.77 194.089C1260.07 200.828 1256.33 206.669 1251.53 211.611C1246.89 216.553 1241.34 220.447 1234.9 223.292C1228.46 225.988 1221.57 227.336 1214.24 227.336C1204.8 227.336 1196.49 225.314 1189.3 221.27C1182.26 217.077 1177.09 211.985 1173.8 205.995H1173.35V275.858H1155.82V119.508ZM1173.35 172.074C1173.35 177.615 1174.17 182.782 1175.82 187.574C1177.62 192.217 1180.16 196.335 1183.46 199.93C1186.75 203.374 1190.65 206.145 1195.14 208.241C1199.78 210.188 1204.95 211.162 1210.64 211.162C1216.33 211.162 1221.42 210.188 1225.92 208.241C1230.56 206.145 1234.53 203.374 1237.82 199.93C1241.12 196.335 1243.59 192.217 1245.24 187.574C1247.04 182.782 1247.93 177.615 1247.93 172.074C1247.93 166.533 1247.04 161.441 1245.24 156.799C1243.59 152.006 1241.12 147.888 1237.82 144.443C1234.53 140.849 1230.56 138.079 1225.92 136.132C1221.42 134.035 1216.33 132.987 1210.64 132.987C1204.95 132.987 1199.78 134.035 1195.14 136.132C1190.65 138.079 1186.75 140.849 1183.46 144.443C1180.16 147.888 1177.62 152.006 1175.82 156.799C1174.17 161.441 1173.35 166.533 1173.35 172.074Z" fill="white"/>
</svg>
