<svg width="120" height="42" viewBox="0 0 120 42" fill="none" xmlns="http://www.w3.org/2000/svg">
<path fill-rule="evenodd" clip-rule="evenodd" d="M6.27833 20.2265C6.25844 23.9893 9.03271 26.2325 13.4599 25.2126V15.2405C8.97675 13.8826 6.29709 16.6297 6.27833 20.2265ZM13.5953 0.821045H19.6928V29.5249C13.8481 30.4752 8.25041 31.078 4.24583 28.851C-0.910414 25.9839 -1.32494 16.8727 2.75521 12.8147C4.82391 10.7575 8.98858 9.30912 13.4599 10.2543V1.22542C13.4482 1.03406 13.4374 0.843564 13.5953 0.821045" fill="#0C4B33"/>
<path fill-rule="evenodd" clip-rule="evenodd" d="M29.5843 7.15475H23.4868V0.821045H29.5843V7.15475V7.15475Z" fill="#0C4B33"/>
<path fill-rule="evenodd" clip-rule="evenodd" d="M102.755 25.4822C109.402 28.0512 110.137 13.6493 103.432 14.9708C99.2682 15.7916 99.4019 24.1864 102.755 25.4822ZM103.026 9.98477C108.102 9.44499 111.931 11.6728 113.459 15.1057C116.066 20.9629 113.316 27.6837 109.123 29.6598C106.95 30.684 104.675 30.7815 102.619 30.6031C96.2651 30.052 92.2578 23.612 94.4891 16.4532C94.8383 15.3327 95.2306 14.6474 95.4377 14.2971C96.8188 11.9615 99.1506 10.3969 103.026 9.98477" fill="#0C4B33"/>
<path fill-rule="evenodd" clip-rule="evenodd" d="M37.9854 23.1913C36.2989 26.01 40.5363 26.6854 43.2697 25.8865V21.7089C41.1694 22.0005 38.7788 21.8648 37.9854 23.1913ZM48.6898 29.7945C43.6529 30.0827 35.9983 31.7891 33.2428 28.447C31.6239 26.4832 31.798 22.7378 33.2428 20.9003C35.1099 18.5261 39.1855 18.0082 42.8633 17.6661C43.1972 16.8485 42.972 15.5182 42.5923 14.9707C39.2282 14.1185 35.8858 15.439 33.5139 16.453V11.7366C37.0964 10.0997 45.3942 8.37606 47.8769 12.1409C49.1807 14.1182 48.6898 17.5667 48.6898 20.6306V29.7945V29.7945Z" fill="#0C4B33"/>
<path fill-rule="evenodd" clip-rule="evenodd" d="M70.099 30.0641H64.0015V22.2479C64.0015 19.6744 64.4201 16.4112 63.0528 15.3751C61.982 14.5632 59.4417 14.9706 57.904 15.3751V30.0641H51.8064V11.3323C58.0396 9.72206 69.2909 7.99558 70.099 15.7793C70.4975 19.617 69.8038 25.3747 70.099 30.0641" fill="#0C4B33"/>
<path fill-rule="evenodd" clip-rule="evenodd" d="M79.1775 23.5956C80.2036 25.2466 82.982 25.8657 85.2749 24.8084C85.1489 21.6545 85.105 18.4191 85.1394 15.1056C79.8698 13.721 76.7293 19.6572 79.1775 23.5956V23.5956ZM94.489 10.7934C93.9463 12.4099 93.152 13.7759 92.4565 15.2406C91.8281 15.3806 91.2835 14.9922 90.9659 15.2406C90.8269 21.8096 92.3726 30.7148 89.7464 35.4544C88.1652 38.308 85.2541 40.1388 80.8034 40.4406C77.5612 40.6605 75.0449 40.1336 72.6734 39.2278V33.5678C75.4549 35.183 82.4834 36.4998 84.462 33.1635C85.0441 32.1819 85.0072 31.1673 85.2749 29.6597C84.001 29.7263 82.7644 30.313 81.21 30.3336C74.8196 30.418 70.8661 25.3575 72.4024 18.3398C72.9966 15.6253 74.5959 13.4397 76.7386 12.1409C81.1887 9.44351 88.0291 9.64834 94.489 10.7934" fill="#0C4B33"/>
<path fill-rule="evenodd" clip-rule="evenodd" d="M29.5843 10.3619C29.5774 14.8275 29.5784 18.0363 29.5779 23.4613C29.3189 28.7926 29.3792 33.0381 27.4164 35.5891C27.0292 36.0921 26.2071 36.826 25.5193 37.3411C24.9416 37.7735 23.8407 38.6506 23.2158 38.6887C22.5858 38.7272 20.9672 37.8189 20.2347 37.4758C19.2728 37.0252 18.3836 36.4269 17.3893 36.1283C19.7087 34.6989 21.9103 33.6272 22.8092 30.7378C23.5909 28.225 23.4868 24.5837 23.4868 21.0351C23.4868 17.5311 23.5025 13.4573 23.5025 10.3635L29.5843 10.3621V10.3619Z" fill="#0C4B33"/>
</svg>
