<svg width="120" height="47" viewBox="0 0 120 47" fill="none" xmlns="http://www.w3.org/2000/svg">
<path d="M18.0324 41.0776C16.1327 39.5821 14.1063 38.1481 12.7215 36.129C9.80772 32.5683 7.56425 28.4458 6.03052 24.1136C5.10349 21.2966 4.786 18.2764 3.59093 15.5682C2.34077 13.6012 3.80516 11.451 5.95772 10.8258C6.91609 10.6417 8.6012 9.73689 6.5671 10.3836C4.74347 11.7228 4.56698 9.16796 6.43697 9.00618C7.71316 8.83639 8.18295 7.7907 7.74653 6.84934C6.37662 5.95517 11.0684 4.97247 8.70767 3.63825C6.24846 0.982572 12.1476 0.471348 10.6922 3.48738C10.3438 5.80658 14.8142 3.06231 13.777 5.74049C14.8312 7.02665 17.7249 6.03322 17.6531 7.83758C19.1889 7.94324 19.7159 9.23663 21.1576 9.33592C22.6518 10.0113 25.3604 10.5435 25.8689 12.2288C24.3865 13.4035 20.9539 9.80239 20.7889 13.054C21.2367 17.8574 21.1227 22.8056 22.8785 27.3799C23.709 30.1496 25.7223 32.33 27.5405 34.4872C29.2802 36.5999 31.6366 38.0872 34.0385 39.3395C36.1454 40.3341 38.4168 40.9937 40.713 41.4076C41.6444 40.6946 43.2886 38.0438 44.7415 39.1616C44.8104 40.4175 41.8578 41.7871 44.6026 41.6483C46.2143 41.1616 47.3321 42.8959 48.6593 41.3316C49.8821 42.7813 53.7416 40.4053 52.8716 43.3685C51.6951 44.1283 49.9793 43.6692 48.801 44.7143C46.8581 43.743 45.3113 45.5834 43.1605 45.3506C40.7718 45.7789 38.3418 45.9517 35.9201 45.9555C31.9472 45.6413 27.8901 45.5089 24.1106 44.1243C21.9815 43.5051 19.9037 42.2916 18.0324 41.0776V41.0776ZM21.3878 42.5328C23.4668 43.4327 25.4997 44.3811 27.7782 44.6672C31.393 45.1705 35.126 45.9445 38.7537 45.2384C37.1118 44.4964 35.4144 45.5275 33.7787 44.7078C31.8169 45.1303 29.7116 44.6002 27.7172 44.3391C25.4492 43.328 23.0017 42.6327 20.8778 41.3201C18.2239 40.3499 22.2503 42.5644 22.967 42.7437C24.626 43.6863 21.1427 42.2606 20.6516 41.8688C19.2621 41.0886 19.085 41.2516 20.514 42.0439C20.8018 42.2125 21.0862 42.3892 21.3878 42.5328V42.5328ZM17.4317 39.7345C19.4464 40.4814 17.4229 38.3164 16.4997 38.4422C16.0907 37.732 14.937 37.2833 15.7508 36.9017C14.2869 37.4104 14.2173 34.9674 13.5292 35.3164C11.9806 34.827 12.9265 33.0931 11.0818 32.0283C10.9134 30.9063 9.24895 29.9331 8.71808 28.2408C8.48361 27.3743 6.83764 24.8861 7.84876 27.2018C8.70968 29.431 10.2244 31.3401 11.4849 33.2469C12.4637 35.0625 13.6195 36.96 15.4021 38.0926C16.003 38.6696 16.5832 39.5536 17.4317 39.7345ZM11.628 33.3565C11.6983 33.052 11.9965 34.0156 11.628 33.3565V33.3565ZM19.8445 40.6298C20.2906 40.4299 19.2029 40.3779 19.8445 40.6298V40.6298ZM20.9381 41.0291C20.8248 40.4778 20.4388 41.3374 20.9381 41.0291V41.0291ZM22.307 41.6007C22.9587 40.9796 21.3026 41.2091 22.307 41.6007V41.6007ZM24.6532 42.9096C25.0493 42.3237 23.3857 42.6884 24.6532 42.9096V42.9096ZM20.1478 39.766C21.1601 39.1105 18.8404 39.7569 20.1478 39.766V39.766ZM21.1748 40.2785C21.1461 39.932 20.8088 40.4337 21.1748 40.2785V40.2785ZM26.3073 43.485C27.1324 44.0061 31.1255 44.6273 28.6251 43.6987C28.2067 43.787 23.9887 42.5045 26.3073 43.485ZM18.1592 37.1331C18.079 36.7856 16.8785 36.7495 18.1592 37.1331V37.1331ZM20.5486 38.527C21.1705 38.0929 19.2579 38.1921 20.5486 38.527V38.527ZM22.5584 39.7604C23.4508 39.4237 21.1108 39.4221 22.5584 39.7604V39.7604ZM17.187 36.0732C18.1551 36.8164 21.0916 36.1685 18.6697 35.6296C17.5674 35.0415 15.083 34.6389 16.7764 35.9842L17.187 36.0732L17.187 36.0732ZM23.9197 40.1863C24.323 39.4986 22.2285 39.7936 23.9197 40.1863V40.1863ZM21.8738 38.5588C24.2412 39.2292 19.883 37.0603 21.2897 38.3122L21.6015 38.4534L21.8738 38.5589L21.8738 38.5588ZM25.9756 40.9318C28.2177 40.9532 23.9505 40.6224 25.9756 40.9318V40.9318ZM16.3243 34.7748C16.2367 34.3568 15.771 34.8099 16.3243 34.7748V34.7748ZM29.7683 43.0612C29.8281 42.3062 29.0366 43.623 29.7683 43.0612V43.0612ZM20.1505 37.1201C20.0149 36.7226 19.45 37.1039 20.1505 37.1201V37.1201ZM16.5369 34.5126C17.8241 34.4352 14.7747 33.9449 16.5369 34.5126V34.5126ZM12.2561 31.7429C12.0959 31.1253 10.8555 30.6327 12.2561 31.7429V31.7429ZM23.4942 38.8816C23.2585 38.6124 23.3833 38.9404 23.4942 38.8816V38.8816ZM30.4892 43.1781C30.4668 42.7668 30.1082 43.3337 30.4892 43.1781V43.1781ZM22.8752 38.2417C23.0011 37.7118 21.7776 38.0813 22.8752 38.2417V38.2417ZM17.664 34.9361C18.6216 34.8334 16.13 34.2881 17.664 34.9361V34.9361ZM26.4791 40.4186C27.9714 39.8269 25.0247 40.1298 26.4791 40.4186V40.4186ZM21.8939 37.3032C23.6137 37.5252 19.8475 36.1323 21.5165 37.1786L21.8939 37.3032L21.8939 37.3032V37.3032ZM27.8712 40.9819C29.4769 40.0211 28.9475 43.2318 30.5953 41.2531C32.2208 40.0652 29.1916 42.7218 31.1949 41.4649C32.6437 40.4951 34.7835 41.9247 36.1354 42.3912C37.1075 42.3434 38.0526 43.2325 39.0492 42.6916C40.9677 42.1744 35.2977 41.9245 36.784 41.0068C35.0285 41.5182 33.7316 40.3972 32.8678 39.2717C30.8987 38.8166 28.622 37.809 27.6393 36.0648C27.2386 35.4099 28.2181 36.157 27.2934 35.0866C26.1069 34.0303 25.5144 32.8312 24.7179 31.5472C23.7663 31.0391 23.6555 29.5435 23.5593 31.497C23.5668 30.2641 22.4104 29.4343 22.1282 29.7793C22.1231 28.5919 23.3658 29.1871 22.4959 28.3086C22.3087 27.078 21.6922 25.7957 21.5069 24.4062C21.219 23.7365 21.4663 22.302 20.5243 23.8182C20.1811 25.4206 20.4104 21.8491 20.9441 23.0268C21.6447 21.8251 20.6926 21.9664 20.6536 22.1333C21.1099 21.1193 20.9424 19.681 20.5345 20.2297C20.7777 19.155 20.9187 16.2745 20.1706 16.785C20.6241 15.6612 21.0306 11.6426 19.062 13.1748C18.2642 13.186 16.8825 13.4647 16.2295 13.7898C18.2772 14.9195 16.0235 14.1978 15.1899 14.0182C15.0813 15.0636 14.2557 14.6115 13.2243 14.6217C14.8717 14.8257 12.422 16.3082 11.4769 15.7324C10.2495 16.3195 12.5362 17.7852 11.5016 18.2384C11.6287 18.9216 9.62114 17.9917 9.77881 19.5695C8.58723 19.0677 9.61474 21.4411 10.2109 20.6384C12.2375 21.1874 11.6376 22.4391 11.6892 23.6281C11.359 24.3209 10.0589 21.9996 11.3997 22.1071C10.3419 20.3872 10.2296 21.4854 9.35065 22.2844C9.14617 22.3424 11.5927 23.4212 10.0574 23.9547C11.4081 24.1633 11.4465 25.3464 11.7215 26.0951C12.5334 26.9415 12.3672 25.1605 13.3387 26.1776C12.7239 25.2715 10.0825 23.6244 12.2092 24.1527C12.1979 23.2406 11.8246 22.5052 12.4761 22.523C13.1214 21.3534 11.8004 25.4067 13.2548 23.9203C13.6574 23.7443 13.7571 22.7492 14.4807 24.0142C15.5318 25.0492 14.8604 25.7991 13.3777 24.8515C13.643 25.7522 15.3611 26.0741 15.0383 27.4826C15.3806 28.7214 15.8594 28.2651 16.2769 28.1935C16.6043 29.3971 16.7903 28.5121 16.8058 27.9393C18.3051 28.2605 17.9539 29.1476 18.4231 29.7674C19.4562 30.2342 16.9443 26.6035 18.718 28.6757C20.5842 30.3621 19.4179 31.0661 17.7432 30.7959C18.8031 30.7102 19.1449 32.2302 20.4707 32.1768C21.6798 32.7525 22.4983 34.9636 20.4144 34.0432C19.6916 33.3909 17.1337 32.5861 19.2229 33.8269C21.1524 34.7213 22.6849 35.2563 24.5459 36.379C25.8777 37.3306 26.4531 38.4206 26.9579 38.6364C25.8386 39.1715 23.5846 38.2091 25.2583 37.9141C24.2144 37.7238 23.0403 37.1954 24.0402 38.4972C24.8904 39.2078 27.0524 39.1325 27.44 39.213C27.1115 39.9376 26.5477 39.9952 27.4535 40.0514C26.4429 40.5904 27.7775 40.6739 27.8712 40.9819H27.8712ZM25.8047 35.1409C25.1899 34.4973 25.0309 33.2918 25.6955 34.3407C26.0363 34.4777 26.7873 36.3106 25.8047 35.1409H25.8047ZM32.5344 39.4197C32.9179 39.3948 32.5456 39.7113 32.5344 39.4197V39.4197ZM24.8339 33.5628C24.8103 32.5898 25.0563 34.3133 24.8339 33.5628V33.5628ZM24.1651 32.6621C23.3917 31.1665 25.14 33.0857 24.1651 32.6621V32.6621ZM16.0597 27.0626C16.514 26.9413 16.2832 27.8403 16.0597 27.0626V27.0626ZM22.5105 30.5624C22.7895 29.5136 22.8384 31.4424 22.5105 30.5624V30.5624ZM17.9532 27.3906C17.6319 26.8118 18.6252 27.9333 17.9532 27.3906V27.3906ZM21.8644 28.6455C21.1317 27.0025 22.3831 27.7481 22.0264 28.9148L21.8644 28.6455ZM15.1195 24.1432C14.792 23.6042 14.2501 22.0227 14.4246 21.5398C14.5824 22.3262 16.0952 24.9237 15.1666 22.6159C14.1405 20.6813 16.3932 23.2438 16.6249 23.7263C16.7328 24.2064 15.9918 23.5952 16.4939 24.7207C15.5783 23.4393 15.9534 25.4286 15.1195 24.1432V24.1432ZM13.035 22.7055C13.1208 21.4522 13.5122 23.5649 13.035 22.7055V22.7055ZM13.9726 23.0286C14.4201 22.0826 14.7313 24.3473 13.9726 23.0286V23.0286ZM11.7171 21.2822C10.941 20.5102 10.3794 19.7987 11.7534 20.8031C12.2829 20.8238 10.5772 19.185 11.8809 20.2827C13.2519 20.5329 12.5579 22.5326 11.7171 21.2822ZM12.9019 21.2512C13.3526 20.8041 13.1412 21.6912 12.9019 21.2512V21.2512ZM13.6309 21.4851C12.9477 20.2032 14.4602 22.0225 13.6309 21.4851V21.4851ZM12.1817 20.0988C9.92557 18.0892 15.0166 21.1497 12.5503 20.4714L12.1817 20.0988L12.1817 20.0988V20.0988ZM18.6458 23.8581C17.6695 23.2721 18.3871 19.7332 18.72 22.1536C19.6691 21.8463 18.6676 23.4036 19.3755 23.3892C19.264 24.3718 18.9473 24.725 18.6458 23.8581ZM21.0367 25.2725C21.1325 24.2059 21.2382 26.0017 21.0367 25.2725V25.2725ZM20.6214 24.8618C20.7289 24.4061 20.6325 25.3983 20.6214 24.8618V24.8618ZM12.6243 19.4384C11.1749 17.4369 16.8366 21.4631 13.5526 19.9461C13.2094 19.8563 12.7965 19.8242 12.6243 19.4384ZM17.2284 21.8818C17.0912 20.1964 17.5347 22.1612 17.2283 21.8818L17.2284 21.8818ZM20.724 24.1263C20.9945 23.1662 20.7441 24.7613 20.724 24.1263V24.1263ZM12.8463 18.6745C13.7077 18.4901 16.4162 20.1888 13.929 19.1598C13.6526 18.8535 13.0634 18.9927 12.8463 18.6745ZM20.2437 22.3649C20.3358 20.6415 20.758 21.3355 20.2469 22.6115L20.2437 22.3649L20.2437 22.3649H20.2437ZM13.4875 18.0749C13.8385 17.5595 12.5558 15.745 13.6724 17.424C14.1549 17.8077 15.0694 18.0668 14.262 18.2282C15.5318 19.3495 13.9523 18.5321 13.4875 18.0749V18.0749ZM19.8778 21.8266C20.1203 19.8634 20.0917 22.9767 19.8778 21.8266V21.8266ZM12.7545 16.2617C13.0226 16.147 12.8961 16.6192 12.7545 16.2617V16.2617ZM14.4213 17.2547C14.8503 16.3537 15.2127 18.2595 14.4213 17.2547V17.2547ZM19.1231 19.8727C19.1186 19.5266 19.2118 20.376 19.1231 19.8727V19.8727ZM18.8508 19.2691C18.1982 17.6576 19.4578 20.1223 18.8508 19.2691V19.2691ZM18.4501 18.2126C18.3405 17.5467 18.8224 19.0491 18.4501 18.2126L18.4501 18.2126ZM19.1022 17.1515C18.6544 16.3617 19.6677 13.6707 19.7808 15.3396C19.3081 16.64 19.6444 17.3675 19.9742 15.6233C20.5831 14.2506 19.8426 18.332 19.1022 17.1516L19.1022 17.1515V17.1515ZM19.7723 13.1496C19.9676 12.9097 19.8157 13.4387 19.7723 13.1496V13.1496ZM18.6532 35.2224C18.3878 34.9905 18.6865 35.37 18.6532 35.2224V35.2224ZM20.9587 36.3898C22.2411 36.7191 22.2346 36.19 21.0755 36.0329C20.4521 35.4524 18.485 34.8366 20.2456 35.9608C20.3623 36.2565 20.7307 36.2496 20.9587 36.3898V36.3898ZM16.4054 33.3627C17.1119 33.89 19.0666 34.8572 17.4119 33.5634C17.9698 32.9146 16.3441 32.5693 16.8834 32.1353C15.5117 31.2952 15.8013 31.3699 16.7623 31.3964C15.1138 30.6588 17.0003 30.714 16.9114 30.3361C16.2758 30.2104 13.7541 29.2142 15.2376 30.4179C13.7295 29.6483 14.8782 30.7046 14.4224 30.5929C12.8803 30.1721 15.7957 31.7685 14.1775 31.3722C15.0622 32.0739 16.5588 33.1697 14.5515 32.1148C14.287 32.4959 15.9879 33.0735 16.4054 33.3627ZM18.8167 34.7492C21.7486 35.6949 17.3793 33.5939 18.8167 34.7492V34.7492ZM31.1601 42.2338C31.1979 41.6516 30.7594 42.7304 31.1601 42.2338V42.2338ZM32.4288 42.7682C33.1052 42.1122 32.4564 43.8133 33.5496 42.6076C33.5614 41.7446 33.516 41.2348 32.2934 42.2832C31.9563 42.4703 31.8059 43.2657 32.4288 42.7682V42.7682ZM12.29 30.109C12.0823 29.2916 10.8339 29.2959 12.29 30.109V30.109ZM13.6447 30.9976C13.1417 30.1627 11.8498 30.2417 13.6447 30.9976V30.9976ZM21.3517 35.6498C22.1042 36.3187 24.8076 36.1406 22.2656 35.7321C21.8891 35.1749 19.875 35.309 21.3517 35.6498ZM31.9462 42.1988C33.1043 41.2262 30.8242 42.6328 31.9462 42.1988V42.1988ZM34.3548 43.8555C34.362 43.5434 33.8556 43.9922 34.3548 43.8555V43.8555ZM34.3585 43.4185C35.6409 42.0585 33.1159 43.499 34.3585 43.4185H34.3585ZM8.95806 27.317C7.86503 25.756 8.2786 25.0543 7.22455 23.7798C7.025 22.8051 5.41629 20.5933 6.39248 22.9365C7.28662 24.3069 7.55232 26.4287 8.95806 27.317V27.317ZM33.9562 42.9862C36.3156 41.4598 32.9878 42.3213 33.9562 42.9862V42.9862ZM35.7573 43.6924C36.9388 42.677 35.0099 43.48 35.7573 43.6924V43.6924ZM11.8885 28.3836C12.2266 27.8801 11.0152 28.3192 11.8885 28.3836V28.3836ZM35.3812 43.2102C36.5252 42.4719 35.1177 42.5853 35.1739 43.2781L35.3813 43.2102H35.3812ZM19.8559 33.4155C19.8166 32.9169 19.2518 33.4578 19.8559 33.4155V33.4155ZM20.8154 33.9681C20.5104 33.351 20.3465 34.065 20.8154 33.9681V33.9681ZM37.2169 43.7091C38.6825 42.6509 36.3285 43.5065 36.9092 43.9096L37.2169 43.7091ZM36.6557 43.4376C37.8496 42.4363 35.3952 43.8814 36.6557 43.4376V43.4376ZM39.5231 45.3489C40.3247 44.8115 38.5492 45.1751 39.5231 45.3489V45.3489ZM12.6237 28.0205C13.6982 28.2615 16.9177 30.6692 15.0183 28.187C14.0455 27.8988 14.6289 25.5187 13.6367 25.94C14.3027 27.0536 14.1846 27.5276 12.7863 26.8255C11.0289 25.9668 11.7987 27.251 12.1422 27.605C11.6741 27.7114 12.7613 28.0116 12.6237 28.0205V28.0205ZM7.72821 24.1508C7.92057 23.3544 5.95695 19.7696 6.80095 22.3546C7.10561 22.896 7.07464 23.9222 7.72821 24.1508ZM16.7135 29.6955C16.1602 29.2323 16.6872 29.63 16.7135 29.6955V29.6955ZM18.076 30.0129C18.0753 29.1693 16.5699 29.6703 18.076 30.0129V30.0129ZM29.8833 37.4632C29.6581 36.8868 28.9932 37.4498 29.8833 37.4632L29.8833 37.4632ZM30.4503 37.8778C30.3666 37.5552 30.1232 37.94 30.4503 37.8778V37.8778ZM35.1304 40.8284C35.5805 40.4955 34.5687 40.7859 35.1304 40.8284V40.8284ZM10.1735 24.7756C11.461 24.2767 8.7941 24.4199 10.1735 24.7756V24.7756ZM28.8439 36.549C28.8296 35.7147 28.0231 36.7559 28.8439 36.549V36.549ZM9.66484 23.5892C10.4918 23.3096 8.8998 23.405 9.66484 23.5892V23.5892ZM12.0652 24.753C12.0502 24.4788 11.8113 24.8568 12.0652 24.753V24.753ZM41.343 42.7232C42.4064 42.5073 44.8298 43.2649 45.2215 42.4409C43.9301 42.4096 40.7535 41.529 40.6032 42.6511L40.8859 42.6956L41.343 42.7232V42.7232ZM12.8282 24.9455C12.8466 24.1001 12.1695 24.9139 12.8282 24.9455V24.9455ZM6.51689 20.5634C6.23027 18.9528 5.42677 20.3196 6.51689 20.5634V20.5634ZM8.0219 20.9421C8.04039 20.4249 6.64436 20.4767 8.0219 20.9421V20.9421ZM8.88197 21.3649C8.63335 21.1633 8.68737 21.6195 8.88197 21.3649V21.3649ZM14.2936 24.8397C14.5484 24.6054 13.6905 24.6661 14.2936 24.8397V24.8397ZM8.30912 20.4113C8.16365 19.1948 6.56599 20.229 8.30912 20.4113V20.4113ZM5.22362 18.4074C5.17973 17.846 4.92293 18.6192 5.22362 18.4074V18.4074ZM5.68257 18.0605C5.6077 17.3948 5.28853 18.1452 5.68257 18.0605V18.0605ZM8.21843 19.5756C9.29073 19.154 6.26524 18.7035 7.99933 19.4959L8.21843 19.5756ZM42.1569 40.5582C42.8433 39.9284 41.2847 40.3635 42.1569 40.5582V40.5582ZM46.2569 42.6855C46.532 41.8712 45.5645 42.7927 46.2569 42.6855V42.6855ZM8.47759 18.2452C8.59055 17.4575 7.62748 18.4016 8.47759 18.2452V18.2452ZM4.86968 15.8257C4.67586 14.7136 4.70237 12.7615 6.55624 13.4212C4.08164 13.913 8.26893 16.4998 7.74016 14.4574C8.78067 14.5084 9.77564 13.8419 9.22959 14.8534C11.2797 14.6267 12.701 12.8473 14.6813 13.0967C16.2238 12.8924 17.9104 12.7374 19.5727 12.1159C20.9394 12.0174 22.255 10.5445 21.5059 9.67155C19.6421 9.51371 17.6911 9.74712 15.6311 10.157C13.3483 10.6319 11.2748 11.5344 8.97155 11.9218C6.72654 12.2236 9.42312 12.7535 8.78006 12.8715C7.60857 13.2783 10.1771 13.5527 8.62818 13.9816C7.67157 13.7995 6.67587 13.4705 7.08449 12.4615C4.93396 12.7408 3.04427 13.6342 4.74331 15.8247L4.86968 15.8256L4.86968 15.8256V15.8257ZM10.0517 13.1841C10.5559 11.3249 12.753 14.714 10.8781 13.431C10.6542 13.2633 10.2859 13.1264 10.0517 13.1841ZM10.1498 12.2827C10.8775 11.74 10.5366 12.5869 10.1498 12.2827V12.2827ZM11.0738 12.2974C11.1395 11.4418 13.1891 12.7503 11.4118 12.6053L11.0738 12.2974ZM12.3378 11.7887C12.7995 11.2488 12.4705 12.2689 12.3378 11.7887V11.7887ZM12.6612 11.5719C13.4298 10.6475 17.014 10.982 14.3905 11.4818C13.6873 10.9519 13.1483 11.7942 12.6612 11.5719ZM17.3386 10.8502C17.2217 8.32524 19.6624 11.7475 17.3386 10.8502V10.8502ZM18.6658 10.843C19.151 9.57034 20.5488 10.3323 18.8903 10.5872C18.9263 10.7227 18.8417 11.2442 18.6658 10.843ZM7.95424 17.592C9.40403 16.7034 6.41513 16.821 7.95424 17.592V17.592ZM9.02621 17.8901C9.53452 17.3491 7.92173 17.6707 9.02621 17.8901V17.8901ZM5.86769 15.6464C6.6961 15.0095 4.88739 15.4042 5.86769 15.6464V15.6464ZM48.677 42.4527C48.701 41.7137 48.0438 42.7857 48.677 42.4527V42.4527ZM44.327 39.4815C44.4507 38.6306 43.768 39.5556 44.327 39.4815V39.4815ZM49.8732 42.7393C51.0314 42.7432 53.3826 42.3792 50.8625 42.3804C50.467 42.4421 48.5582 42.4289 49.8732 42.7393L49.8732 42.7393V42.7393ZM9.96914 17.3686C10.9065 17.3042 11.4357 16.3337 9.78785 16.3895C7.23395 16.1248 12.0411 17.2648 9.46022 16.9388C9.11343 17.1687 9.94899 17.4322 9.96914 17.3686ZM10.7947 17.7869C10.6968 17.1845 10.5048 18.1069 10.7947 17.7869V17.7869ZM11.774 15.1732C12.1807 14.6682 11.2111 15.0382 11.774 15.1732V15.1732ZM8.65654 9.95741C10.3295 9.38777 12.6172 8.74766 13.4071 10.2379C12.6032 9.26945 13.0826 8.31608 13.8419 9.73202C14.9156 11.1646 15.453 9.08042 14.7547 8.59989C15.5505 9.58956 16.4556 10.0572 15.2875 8.66244C16.5569 7.13417 12.746 8.86256 11.8798 8.84516C11.463 9.03239 7.5771 9.83709 8.65654 9.95741V9.95741ZM9.63697 8.07798C10.5911 7.3572 12.9367 8.50672 11.4315 7.36166C11.2844 7.23155 8.13515 8.22997 9.63697 8.07798V8.07798ZM13.1153 8.22171C14.2319 8.25023 12.6336 6.72025 13.9642 7.41353C13.7457 6.69897 12.415 6.5652 11.7645 6.27971C11.3965 6.93302 12.5134 8.2305 13.1153 8.22171ZM10.2469 5.06137C10.6332 4.53721 9.56987 5.3271 10.2469 5.06137V5.06137ZM11.6685 5.40195C13.468 5.16306 11.2098 4.6263 11.3059 5.38275L11.6685 5.40195V5.40194V5.40195ZM9.01404 3.32296C7.74703 1.66746 11.3968 3.60124 10.1095 1.86788C9.02608 1.00432 7.98494 2.83968 9.01404 3.32296ZM25.2741 12.0892C25.8552 11.0581 22.8749 10.6993 24.8825 11.7237C25.0674 11.7856 25.0255 12.1605 25.2741 12.0892Z" fill="#0C0E16"/>
<path d="M52.7038 4.97749C52.4959 5.79757 52.3675 7.17452 52.3186 9.10835C52.3186 9.4878 52.1474 9.67751 51.805 9.67749C51.4626 9.67751 51.2242 9.51228 51.0897 9.18179C50.7228 8.28832 50.3743 7.6641 50.0442 7.30913C49.6529 6.89301 49.1332 6.6421 48.4851 6.5564C47.788 6.44627 46.0516 6.39119 43.2758 6.39117C42.6399 6.39119 42.2242 6.45851 42.0285 6.59312C41.9063 6.67882 41.8451 6.86241 41.8451 7.1439V15.4607C41.8451 15.7422 42.0224 15.8769 42.3771 15.8646C43.4654 15.8524 45.0428 15.7789 47.1094 15.6443C47.5129 15.5953 47.785 15.4638 47.9256 15.2496C48.0662 15.0354 48.2038 14.4815 48.3383 13.588C48.4239 13.0985 48.7113 12.9088 49.2004 13.0189C49.6162 13.1046 49.7935 13.2943 49.7324 13.588C49.3899 15.2526 49.2799 17.419 49.4022 20.0873C49.4144 20.4055 49.2126 20.5769 48.7969 20.6013C48.4545 20.638 48.2405 20.4545 48.1549 20.0505C47.837 18.5206 47.2469 17.7036 46.3849 17.5996C45.5228 17.4955 44.1196 17.4435 42.1753 17.4435C41.9552 17.4435 41.8451 17.5231 41.8451 17.6822V25.9439C41.8451 26.5559 42.0713 26.972 42.5238 27.1923C42.8784 27.3759 43.6427 27.5412 44.8166 27.688C45.4158 27.7492 45.6787 28.0124 45.6053 28.4775C45.5319 28.8814 44.9939 29.0405 43.9912 28.9548C41.0931 28.7223 38.7025 28.7345 36.8193 28.9916C36.2935 29.065 36.0306 28.8508 36.0306 28.349C36.0306 28.0308 36.2935 27.8472 36.8193 27.7982C38.0177 27.6636 38.6169 26.611 38.6169 24.6404V8.92476C38.6169 8.11697 38.4732 7.49581 38.1858 7.06128C37.8984 6.6268 37.3635 6.23207 36.5809 5.8771C36.0917 5.65681 35.9083 5.35694 36.0306 4.97749C36.0917 4.74497 36.1895 4.61645 36.3241 4.59195C36.4463 4.55525 36.7704 4.57973 37.2962 4.66538C38.0666 4.7878 39.8825 4.849 42.7439 4.84898C46.1189 4.849 49.0353 4.77557 51.4932 4.62867C52.3125 4.57973 52.7221 4.64705 52.7222 4.83062C52.7221 4.8796 52.716 4.92856 52.7038 4.97749H52.7038Z" fill="#0C0E16"/>
<path d="M64.6263 28.3123C64.6263 28.8019 64.3512 29.0161 63.8009 28.9549C62.1134 28.7957 60.0224 28.8202 57.5278 29.0283C57.0265 29.0773 56.7177 29.065 56.6015 28.9916C56.4854 28.9181 56.4273 28.7162 56.4273 28.3857C56.4273 28.092 56.7605 27.8441 57.4269 27.6422C58.0934 27.4402 58.4266 26.8374 58.4266 25.8338V9.21853C58.4266 8.22714 58.2829 7.49889 57.9956 7.03376C57.7082 6.56868 57.2038 6.20762 56.4823 5.95056C56.1032 5.81595 55.9137 5.62624 55.9137 5.38142C55.9137 5.01426 56.1888 4.73887 56.7391 4.55525C57.5706 4.286 58.4327 3.86986 59.3254 3.30681C60.0591 2.86621 60.5237 2.6459 60.7194 2.64587C61.1718 2.6459 61.3981 2.95801 61.3981 3.5822C61.3981 3.53327 61.3736 4.14525 61.3247 5.41814C61.288 6.62988 61.2758 7.82324 61.288 8.99822L61.3614 25.3931C61.3614 26.1398 61.5448 26.6814 61.9117 27.0179C62.2785 27.3545 62.9083 27.5779 63.8009 27.6881C64.3512 27.7493 64.6263 27.9573 64.6263 28.3123V28.3123Z" fill="#0C0E16"/>
<path d="M81.3546 27.0822C81.3546 27.3393 80.8869 27.7279 79.9514 28.2481C79.016 28.7682 78.267 29.0283 77.7045 29.0283C77.2276 29.0283 76.8057 28.7958 76.4389 28.3307C76.072 27.8656 75.8152 27.633 75.6685 27.633C75.5584 27.633 74.9776 27.8839 73.926 28.3857C72.8743 28.8876 71.8166 29.1385 70.7527 29.1385C69.75 29.1385 68.9124 28.8447 68.2398 28.2572C67.5061 27.6085 67.1393 26.7273 67.1393 25.6135C67.1393 23.496 69.5605 21.9783 74.4029 21.0604C75.2344 20.9012 75.6562 20.5647 75.6685 20.0506L75.7052 18.8756C75.7785 16.8683 74.892 15.8647 73.0455 15.8646C72.5197 15.8647 72.0214 16.3359 71.5506 17.2783C71.0798 18.2208 70.4042 18.7287 69.5238 18.8021C68.5211 18.9001 68.0197 18.4778 68.0197 17.5354C68.0197 16.9479 68.7656 16.2624 70.2575 15.4791C71.8227 14.6591 73.3268 14.249 74.7697 14.249C77.252 14.249 78.481 15.4302 78.4565 17.7924L78.3832 25.3564C78.3709 26.152 78.7072 26.5498 79.392 26.5498C79.5265 26.5498 79.7833 26.5192 80.1624 26.458C80.5414 26.3968 80.7615 26.3662 80.8227 26.3662C81.1773 26.3662 81.3546 26.6049 81.3546 27.0822V27.0822ZM75.7052 22.8963C75.7174 22.5903 75.6471 22.3884 75.4942 22.2904C75.3414 22.1925 75.0999 22.1742 74.7697 22.2354C71.8227 22.7617 70.3492 23.7225 70.3492 25.1178C70.3492 26.5253 71.1135 27.2291 72.642 27.2291C73.2534 27.2291 73.8832 27.1128 74.5313 26.8803C75.2894 26.611 75.6685 26.2867 75.6685 25.9072L75.7052 22.8963Z" fill="#0C0E16"/>
<path d="M95.0381 24.8974C95.0381 26.1948 94.5398 27.226 93.5432 27.991C92.5466 28.7559 91.1862 29.1384 89.462 29.1384C88.3125 29.1384 87.1631 29.016 86.0136 28.7712C85.0231 28.5509 84.4484 28.349 84.2894 28.1654C84.1916 27.994 84.1427 27.1556 84.1427 25.6501C84.1427 25.0015 84.2894 24.6649 84.5829 24.6404C84.8764 24.6037 85.1271 24.7628 85.335 25.1177C86.2521 26.7211 87.7317 27.5228 89.7738 27.5228C91.498 27.5228 92.3601 26.9231 92.3601 25.7236C92.3601 25.1973 92.1644 24.7567 91.7731 24.4017C91.3451 23.9978 90.5136 23.5266 89.2786 22.988C87.4932 22.1925 86.301 21.4948 85.7018 20.8951C85.0537 20.2586 84.7297 19.4018 84.7297 18.3248C84.7297 17.0029 85.2371 15.9748 86.2521 15.2404C87.1936 14.5305 88.4532 14.1756 90.0306 14.1755C91.0211 14.1756 91.926 14.2551 92.7453 14.4142C93.6257 14.5733 94.0843 14.7692 94.121 15.0017C94.2188 15.6871 94.4206 16.6785 94.7263 17.9759C94.7629 18.1351 94.5918 18.2636 94.2127 18.3615C93.8091 18.4472 93.5401 18.3798 93.4056 18.1595C92.4396 16.5806 91.2167 15.7912 89.7371 15.7912C88.0619 15.7912 87.2242 16.3297 87.2242 17.4068C87.2242 18.0065 87.4504 18.4839 87.9029 18.8388C88.3064 19.1448 89.2541 19.6222 90.746 20.2708C92.3112 20.944 93.375 21.5499 93.9375 22.0884C94.6712 22.7861 95.0381 23.7224 95.0381 24.8974V24.8974Z" fill="#0C0E16"/>
<path d="M116.315 28.2021C116.315 28.6305 116.028 28.8569 115.453 28.8814C114.597 28.8936 113.478 28.9548 112.096 29.065C111.412 29.1996 110.923 29.114 110.629 28.808C108.697 26.7272 107.058 24.5486 105.713 22.272C105.603 22.0762 105.463 21.9783 105.291 21.9783C105.084 21.9783 104.723 22.1619 104.209 22.5291C103.635 22.8473 103.347 23.3002 103.347 23.8877C103.347 24.3038 103.359 24.9035 103.384 25.6869C103.408 26.4702 103.604 26.9843 103.971 27.2291C104.228 27.4004 104.821 27.535 105.75 27.633C106.325 27.7064 106.612 27.9206 106.612 28.2755C106.612 28.5571 106.566 28.7315 106.475 28.7988C106.383 28.8661 106.141 28.8814 105.75 28.8447C104.527 28.7345 102.461 28.7957 99.5503 29.0283C98.8166 29.0895 98.4192 28.9977 98.358 28.7529C98.3336 28.6672 98.3214 28.5448 98.3214 28.3857C98.3214 28.0063 98.6943 27.7186 99.4402 27.5228C100.113 27.3515 100.449 26.562 100.449 25.1544V9.10835C100.449 8.10473 100.351 7.40707 100.156 7.01538C99.8866 6.51358 99.3241 6.12191 98.4681 5.84038C98.0646 5.70577 97.8628 5.51606 97.8628 5.27124C97.8628 4.91632 98.1501 4.64093 98.7249 4.44507C99.642 4.1391 100.516 3.71684 101.348 3.17827C102.02 2.73767 102.436 2.51736 102.595 2.51733C103.096 2.51736 103.347 2.83559 103.347 3.47202C103.347 3.38637 103.341 3.99223 103.329 5.2896C103.317 6.18311 103.31 7.38259 103.31 8.88804L103.347 20.381C103.347 20.6992 103.433 20.8584 103.604 20.8584C103.787 20.8584 104.069 20.6992 104.448 20.381C105.463 19.5854 106.71 18.5451 108.19 17.2599C108.483 16.9539 108.63 16.7091 108.63 16.5255C108.63 16.1951 108.135 15.9625 107.144 15.8279C106.716 15.7789 106.514 15.5403 106.539 15.1119C106.575 14.6835 106.789 14.4999 107.181 14.5611C108.061 14.6835 109.345 14.7508 111.033 14.763C112.207 14.7753 113.374 14.7814 114.536 14.7814C114.915 14.7937 115.105 15.0201 115.105 15.4607C115.105 15.8769 114.805 16.1033 114.206 16.14C113.264 16.1767 112.378 16.3909 111.546 16.7826C110.385 17.3089 109.143 18.233 107.823 19.5548C107.725 19.6283 107.676 19.7201 107.676 19.8302C107.676 20.0016 107.884 20.4116 108.3 21.0603C109.828 23.3858 111.271 25.1422 112.628 26.3294C113.497 27.0761 114.31 27.4494 115.068 27.4494C115.63 27.4494 115.979 27.4892 116.113 27.5687C116.248 27.6483 116.315 27.8594 116.315 28.2021H116.315Z" fill="#0C0E16"/>
</svg>
