<svg width="120" height="43" viewBox="0 0 120 43" fill="none" xmlns="http://www.w3.org/2000/svg">
<path fill-rule="evenodd" clip-rule="evenodd" d="M104.451 36.7158V42.2034H114.362C116.393 42.2034 119.879 40.7178 120 36.5642V34.4419C120 30.8946 117.09 28.8026 114.362 28.8026H109.422V26.2559H119.212V20.7379H109.816C107.391 20.7379 104.148 22.7389 104.148 26.4681V28.3782C104.148 32.1073 107.36 34.0174 109.816 34.0174C116.636 34.0477 108.179 34.0174 114.483 34.0174V36.6854L104.451 36.7158ZM51.3463 35.3817C51.3463 35.3817 56.6507 34.927 56.6507 28.075C56.6507 21.223 50.2248 20.5863 50.2248 20.5863H38.6461V42.2034H44.4658V36.9886L49.4973 42.2034H58.1056L51.3463 35.3817ZM49.1033 30.9552H44.4658V26.0133H49.1336C49.1336 26.0133 50.437 26.4984 50.437 28.4691C50.437 30.4398 49.1033 30.9552 49.1033 30.9552ZM71.0179 20.7379H65.1073C60.8942 20.7379 59.4696 24.558 59.4696 26.3771V42.2034H65.3801V38.4136H70.927V42.2034H76.6557V26.3771C76.6557 21.7687 72.4728 20.7379 71.0179 20.7379ZM70.927 32.2893H65.3498V27.0441C65.3498 27.0441 65.3498 25.8617 67.1988 25.8617H69.2296C70.8664 25.8617 70.8967 27.0441 70.8967 27.0441V32.2893H70.927Z" fill="#CC0000"/>
<path d="M85.5064 20.7379H79.3534V42.2034H85.5064V20.7379Z" fill="#CC0000"/>
<path fill-rule="evenodd" clip-rule="evenodd" d="M94.145 36.6551V20.7379H88.0222V36.6551V42.2034H94.145H102.42V36.6551H94.145Z" fill="#CC0000"/>
<path fill-rule="evenodd" clip-rule="evenodd" d="M2.1217 42.2033H26.0671C26.0671 42.2033 21.4902 21.3139 36.6456 12.855C39.9494 11.2481 50.4672 5.24505 67.6837 17.9788C68.2293 17.5241 68.7446 17.1602 68.7446 17.1602C68.7446 17.1602 52.983 1.42491 35.4331 3.18339C26.6127 3.97167 15.7615 12.0061 9.39627 22.6176C3.03102 33.229 2.1217 42.2033 2.1217 42.2033Z" fill="#CC0000"/>
<path fill-rule="evenodd" clip-rule="evenodd" d="M2.1217 42.2033H26.0671C26.0671 42.2033 21.4902 21.3139 36.6456 12.855C39.9494 11.2481 50.4672 5.24505 67.6837 17.9788C68.2293 17.5241 68.7446 17.1602 68.7446 17.1602C68.7446 17.1602 52.983 1.42491 35.4331 3.18339C26.6127 3.97167 15.7615 12.0061 9.39627 22.6176C3.03102 33.229 2.1217 42.2033 2.1217 42.2033Z" fill="#CC0000"/>
<path fill-rule="evenodd" clip-rule="evenodd" d="M2.1217 42.2034H26.0671C26.0671 42.2034 21.4902 21.3139 36.6456 12.8551C39.9494 11.2482 50.4672 5.24513 67.6837 17.9789C68.2293 17.5241 68.7446 17.1603 68.7446 17.1603C68.7446 17.1603 52.983 1.425 35.4331 3.18347C26.5824 3.97175 15.7312 12.0062 9.36596 22.6176C3.00071 33.2291 2.1217 42.2034 2.1217 42.2034ZM52.0131 4.88131L52.1343 2.84997C51.8615 2.69837 51.1038 2.33455 49.1942 1.78882L49.0729 3.78984C50.0732 4.12334 51.0431 4.48717 52.0131 4.88131Z" fill="#CC0000"/>
<path fill-rule="evenodd" clip-rule="evenodd" d="M49.1336 11.3088L49.0124 13.2189C50.0126 13.2492 51.0129 13.3705 52.0131 13.5827L52.1344 11.703C51.1038 11.4907 50.1036 11.3694 49.1336 11.3088ZM37.9187 1.84943H38.2218L37.6156 0C36.6759 0 35.706 0.0606371 34.7057 0.181911L35.2816 1.9707C36.1607 1.87975 37.0397 1.84943 37.9187 1.84943ZM39.3736 13.0066L40.0707 15.0986C40.9497 14.6742 41.8287 14.3103 42.7078 14.0375L42.0409 12.0365C41.0104 12.3396 40.1313 12.6731 39.3736 13.0066ZM25.6125 5.03288L24.2485 2.9409C23.4908 3.33504 22.7027 3.7595 21.8843 4.24459L23.2786 6.36689C24.0667 5.88179 24.8245 5.42702 25.6125 5.03288ZM31.8262 18.6762L33.2811 20.8591C33.7964 20.1012 34.4026 19.4039 35.0695 18.7065L33.7055 16.6449C33.0083 17.2816 32.3718 17.9789 31.8262 18.6762ZM27.4312 28.4388L29.8863 30.3792C30.0076 29.1967 30.2198 28.0143 30.5229 26.8319L28.3405 25.1037C27.9465 26.2255 27.6737 27.3473 27.4312 28.4388ZM14.1551 14.0375L12.003 12.1577C11.215 12.9157 10.4572 13.6737 9.76004 14.4316L12.094 16.4326C12.7305 15.614 13.4276 14.7954 14.1551 14.0375ZM5.00126 27.5899L1.51553 26.3165C0.939631 27.6202 0.303107 29.1361 0 29.9547L3.48573 31.2281C3.87977 30.1973 4.51629 28.7116 5.00126 27.5899ZM26.9765 36.1397C27.0371 37.7466 27.1887 39.0503 27.3402 39.9598L30.9775 41.2635C30.7047 40.0811 30.4319 38.7471 30.2501 37.3221L26.9765 36.1397Z" fill="#CC0000"/>
</svg>
