<svg width="120" height="31" viewBox="0 0 120 31" fill="none" xmlns="http://www.w3.org/2000/svg">
<g clip-path="url(#clip0)">
<path d="M39.5267 21.3815C39.1588 21.1835 38.8757 20.7594 38.8757 20.1943C38.8757 19.4324 39.4701 18.8146 40.2655 18.8146C40.5473 18.8146 40.8033 18.8973 41.0002 19.0104C42.4468 19.9714 43.9485 20.4518 45.3065 20.4518C46.7793 20.4518 47.629 19.8298 47.629 18.8401V18.7841C47.629 17.6262 46.0437 17.2314 44.2859 16.6952C42.0776 16.0734 39.613 15.1707 39.613 12.3178V12.2606C39.613 9.43603 41.9641 7.71394 44.9387 7.71394C46.5256 7.71394 48.1961 8.16645 49.641 8.92782C50.124 9.1828 50.4621 9.63485 50.4621 10.2264C50.4621 11.018 49.8399 11.6124 49.0468 11.6124C48.762 11.6124 48.5922 11.5557 48.368 11.4421C47.1479 10.82 45.9019 10.4239 44.8541 10.4239C43.5217 10.4239 42.7566 11.0468 42.7566 11.8946V11.9495C42.7566 13.0513 44.3713 13.502 46.1283 14.0679C48.3096 14.7462 50.7742 15.734 50.7742 18.4168V18.474C50.7742 21.6085 48.3367 23.16 45.2213 23.16C43.3245 23.16 41.2564 22.569 39.5267 21.3815" fill="#5FB832"/>
<path d="M64.0537 15.4519V15.3947C64.0537 12.5154 62.0986 10.623 59.7768 10.623C57.454 10.623 55.4144 12.5434 55.4144 15.3947V15.4519C55.4144 18.3042 57.454 20.2264 59.7768 20.2264C62.1279 20.2264 64.0537 18.3894 64.0537 15.4519V15.4519ZM52.0708 9.43554C52.0708 8.47711 52.8065 7.71346 53.7716 7.71346C54.7341 7.71346 55.499 8.47711 55.499 9.43554V10.4537C56.604 8.90117 58.1616 7.65807 60.5984 7.65807C64.1105 7.65807 67.5387 10.4244 67.5387 15.3947V15.4519C67.5387 20.3947 64.1391 23.1898 60.5984 23.1898C58.1057 23.1898 56.5474 21.9459 55.499 20.565V25.8431C55.499 26.8068 54.7341 27.5413 53.7716 27.5413C52.8373 27.5413 52.0708 26.8068 52.0708 25.8431V9.43554" fill="#5FB832"/>
<path d="M68.8372 9.43753C68.8372 8.47916 69.5716 7.71545 70.5351 7.71545C71.5006 7.71545 72.2644 8.47916 72.2644 9.43753V10.2592C72.4355 8.97943 74.5297 7.71545 76.0318 7.71545C77.1077 7.71545 77.7317 8.42092 77.7317 9.40883C77.7317 10.3118 77.1364 10.9059 76.3713 11.0468C73.935 11.4706 72.2644 13.5958 72.2644 16.5361V21.4629C72.2644 22.3959 71.5006 23.158 70.5351 23.158C69.601 23.158 68.8372 22.4233 68.8372 21.4629V9.43753" fill="#5FB832"/>
<path d="M79.0282 9.44443C79.0282 8.4845 79.7672 7.72079 80.7288 7.72079C81.6917 7.72079 82.4568 8.4845 82.4568 9.44443V21.4657C82.4568 22.4246 81.6917 23.158 80.7288 23.158C79.7933 23.158 79.0282 22.4246 79.0282 21.4657V9.44443Z" fill="#5FB832"/>
<path d="M84.1848 9.45109C84.1848 8.49116 84.9218 7.72927 85.8834 7.72927C86.8476 7.72927 87.6121 8.49116 87.6121 9.45109V10.1523C88.5769 8.76801 89.9629 7.72061 92.2856 7.72061C95.6567 7.72061 97.6125 9.98091 97.6125 13.4259V21.4637C97.6125 22.4234 96.8748 23.1586 95.9119 23.1586C94.949 23.1586 94.1846 22.4234 94.1846 21.4637V14.4712C94.1846 12.1565 93.0232 10.8282 90.9832 10.8282C89.0006 10.8282 87.6121 12.2119 87.6121 14.5294V21.4637C87.6121 22.4234 86.8476 23.1586 85.8834 23.1586C84.9493 23.1586 84.1848 22.4234 84.1848 21.4637V9.45109" fill="#5FB832"/>
<path d="M106.673 20.1952C104.319 20.1952 102.395 18.3589 102.395 15.4215V15.366C102.395 12.486 104.348 10.5936 106.673 10.5936C108.996 10.5936 111.036 12.5145 111.036 15.366V15.4215C111.036 18.2745 108.996 20.1952 106.673 20.1952ZM112.675 7.68406C111.714 7.68406 110.949 8.44823 110.949 9.40693V10.4233C109.843 8.87073 108.287 7.62836 105.852 7.62836C102.337 7.62836 98.9103 10.3948 98.9103 15.366V15.4215C98.9103 20.3643 102.309 23.1586 105.852 23.1586C108.33 23.1586 109.884 21.9295 110.933 20.5554C110.761 23.2407 109.112 24.6585 106.22 24.6585C104.493 24.6585 102.991 24.2335 101.629 23.4695C101.46 23.3869 101.264 23.331 101.008 23.331C100.215 23.331 99.5618 23.9813 99.5618 24.7414C99.5618 25.3914 99.9306 25.8714 100.527 26.0974C102.338 26.9732 104.206 27.4252 106.303 27.4252C108.996 27.4252 111.093 26.7761 112.453 25.4199C113.696 24.1763 114.377 22.3146 114.377 19.7999V9.40693C114.377 8.44823 113.64 7.68406 112.675 7.68406" fill="#5FB832"/>
<path d="M82.4704 3.60587C82.4704 4.55611 81.6961 5.32874 80.7417 5.32874C79.7867 5.32874 79.0144 4.55611 79.0144 3.60587C79.0144 2.65304 79.7867 1.88379 80.7417 1.88379C81.6961 1.88379 82.4704 2.65304 82.4704 3.60587Z" fill="#5FB832"/>
<path d="M28.0265 22.1373C24.2265 27.1848 16.1089 25.4811 10.9045 25.7261C10.9045 25.7261 9.9832 25.7772 9.05523 25.9295C9.05523 25.9295 9.40611 25.7803 9.85362 25.6265C13.5089 24.3663 15.2363 24.1131 17.4574 22.9758C21.6306 20.8446 25.7838 16.2025 26.6289 11.3803C25.0405 16.0182 20.2094 20.01 15.8105 21.6309C12.7997 22.7385 7.35485 23.8165 7.35406 23.8169C7.35661 23.8207 7.13707 23.7033 7.134 23.7007C3.43109 21.9047 3.32425 13.9095 10.0495 11.3323C12.9981 10.2015 15.8185 10.8226 19.006 10.0662C22.4058 9.2604 26.3433 6.71993 27.9437 3.39858C29.7379 8.7039 31.8932 17.0041 28.0265 22.1373V22.1373ZM28.0926 1.75459C27.6402 2.82607 27.0881 3.79159 26.4516 4.6552C23.6502 1.78889 19.7399 0.00302441 15.4179 0.00302441C6.91596 0.00302441 0 6.89845 0 15.3726C0 19.815 1.90208 23.8215 4.9346 26.6299L5.27223 26.9281C4.70841 26.4697 4.62171 25.6443 5.07868 25.0817C5.53845 24.5188 6.36722 24.4316 6.9313 24.8875C7.4969 25.3443 7.58307 26.1718 7.12512 26.7354C6.66887 27.2992 5.83859 27.3844 5.27376 26.9293L5.50352 27.1322C8.18594 29.3838 11.6438 30.7439 15.4179 30.7439C23.5443 30.7439 30.2173 24.4393 30.7885 16.4817C31.2116 12.5855 30.0572 7.63821 28.0926 1.75459Z" fill="#5FB832"/>
<path d="M118.391 8.76032H117.852V9.47112H118.391C118.565 9.47112 118.756 9.33081 118.756 9.12412C118.756 8.90063 118.565 8.76032 118.391 8.76032V8.76032ZM118.723 10.52L118.2 9.72689H117.852V10.52H117.571V8.51223H118.391C118.731 8.51223 119.046 8.75245 119.046 9.12412C119.046 9.56998 118.647 9.71895 118.532 9.71895L119.071 10.52H118.723ZM118.242 8.02485C117.413 8.02485 116.75 8.6858 116.75 9.51258C116.75 10.3301 117.413 10.9997 118.242 10.9997C119.062 10.9997 119.734 10.3301 119.734 9.51258C119.734 8.6858 119.062 8.02485 118.242 8.02485ZM118.242 11.2644C117.272 11.2644 116.485 10.4791 116.485 9.51258C116.485 8.53684 117.272 7.76024 118.242 7.76024C119.22 7.76024 119.999 8.53684 119.999 9.51258C119.999 10.4791 119.22 11.2644 118.242 11.2644Z" fill="#5FB832"/>
</g>
<defs>
<clipPath id="clip0">
<rect width="120" height="30.7438" fill="white"/>
</clipPath>
</defs>
</svg>
